<svg width="11" height="19" viewBox="0 0 11 19" fill="none" xmlns="http://www.w3.org/2000/svg">
<path fill-rule="evenodd" clip-rule="evenodd" d="M7.12951 9.1875L0.942014 3C0.657528 2.70518 0.50022 2.31041 0.503972 1.90073C0.507724 1.49105 0.672235 1.09923 0.962073 0.809664C1.25191 0.520099 1.64389 0.355957 2.05357 0.352592C2.46326 0.349226 2.85787 0.506906 3.15243 0.79167L10.4441 8.08334C10.7367 8.37631 10.9011 8.77344 10.9011 9.1875C10.9011 9.60157 10.7367 9.9987 10.4441 10.2917L3.15243 17.5833C2.85787 17.8681 2.46326 18.0258 2.05357 18.0224C1.64389 18.019 1.25191 17.8549 0.962073 17.5653C0.672235 17.2758 0.507724 16.884 0.503972 16.4743C0.50022 16.0646 0.657528 15.6698 0.942014 15.375L7.12951 9.1875Z" fill="#C7C8CD"/>
</svg>
