<svg width="18" height="18" viewBox="0 0 18 18" fill="none" xmlns="http://www.w3.org/2000/svg">
<path fill-rule="evenodd" clip-rule="evenodd" d="M15.8 14.5C16.739 14.5 17.5 15.172 17.5 16C17.5 16.828 16.739 17.5 15.8 17.5H2.2C1.261 17.5 0.5 16.828 0.5 16C0.5 15.172 1.261 14.5 2.2 14.5H15.8ZM15.8 7.5C16.739 7.5 17.5 8.172 17.5 9C17.5 9.828 16.739 10.5 15.8 10.5H2.2C1.261 10.5 0.5 9.828 0.5 9C0.5 8.172 1.261 7.5 2.2 7.5H15.8ZM15.8 0.5C16.739 0.5 17.5 1.172 17.5 2C17.5 2.828 16.739 3.5 15.8 3.5H2.2C1.261 3.5 0.5 2.828 0.5 2C0.5 1.172 1.261 0.5 2.2 0.5H15.8Z" fill="#343538"/>
</svg>
