<svg width="18" height="18" viewBox="0 0 18 18" fill="none" xmlns="http://www.w3.org/2000/svg">
<path fill-rule="evenodd" clip-rule="evenodd" d="M12.9422 10.8769C13.8728 9.42331 14.2336 7.67721 13.9553 5.97388C13.677 4.27054 12.7793 2.73006 11.4345 1.64826C10.0896 0.566465 8.3926 0.0196198 6.66919 0.112743C4.94579 0.205866 3.31754 0.932391 2.09713 2.1528C0.876727 3.37321 0.150202 5.00145 0.0570787 6.72486C-0.0360442 8.44826 0.510801 10.1453 1.5926 11.4901C2.6744 12.8349 4.21488 13.7327 5.91821 14.011C7.62155 14.2892 9.36764 13.9284 10.8212 12.9979L14.4852 16.6629C14.7666 16.9442 15.1482 17.1023 15.5462 17.1023C15.9441 17.1023 16.3258 16.9442 16.6072 16.6629C16.8886 16.3815 17.0467 15.9998 17.0467 15.6019C17.0467 15.2039 16.8886 14.8222 16.6072 14.5409L12.9422 10.8769ZM7.04619 11.1019C5.98532 11.1019 4.96791 10.6804 4.21776 9.93028C3.46761 9.18013 3.04619 8.16272 3.04619 7.10185C3.04619 6.04099 3.46761 5.02357 4.21776 4.27342C4.96791 3.52328 5.98532 3.10185 7.04619 3.10185C8.10705 3.10185 9.12447 3.52328 9.87461 4.27342C10.6248 5.02357 11.0462 6.04099 11.0462 7.10185C11.0462 8.16272 10.6248 9.18013 9.87461 9.93028C9.12447 10.6804 8.10705 11.1019 7.04619 11.1019Z" fill="#343538"/>
</svg>
