<svg width="16" height="17" viewBox="0 0 16 17" fill="none" xmlns="http://www.w3.org/2000/svg">
<g clip-path="url(#clip0_41_131)">
<path d="M4.19411 0.903442C3.86583 0.903442 3.59833 1.17095 3.59833 1.49922V3.28654C3.59833 3.61481 3.86583 3.88232 4.19411 3.88232C4.52238 3.88232 4.78988 3.61481 4.78988 3.28654V1.49922C4.78988 1.17095 4.52238 0.903442 4.19411 0.903442ZM11.3434 0.903442C11.0151 0.903442 10.7476 1.17095 10.7476 1.49922V3.28654C10.7476 3.61481 11.0151 3.88232 11.3434 3.88232C11.6717 3.88232 11.9392 3.61481 11.9392 3.28654V1.49922C11.9392 1.17095 11.6717 0.903442 11.3434 0.903442ZM1.81101 2.09499C0.824403 2.09499 0.0236816 2.89571 0.0236816 3.88232V14.6063C0.0236816 15.5929 0.824403 16.3936 1.81101 16.3936H13.7265C14.7131 16.3936 15.5138 15.5929 15.5138 14.6063V3.88232C15.5138 2.89571 14.7131 2.09499 13.7265 2.09499H12.535V3.28654C12.535 3.60256 12.4094 3.90564 12.186 4.1291C11.9625 4.35255 11.6594 4.47809 11.3434 4.47809C11.0274 4.47809 10.7243 4.35255 10.5009 4.1291C10.2774 3.90564 10.1519 3.60256 10.1519 3.28654V2.09499H5.38566V3.28654C5.38566 3.60256 5.26012 3.90564 5.03666 4.1291C4.8132 4.35255 4.51013 4.47809 4.19411 4.47809C3.87809 4.47809 3.57501 4.35255 3.35155 4.1291C3.12809 3.90564 3.00256 3.60256 3.00256 3.28654V2.09499H1.81101ZM1.21523 6.26542H14.3223V14.6063C14.3223 14.9345 14.0548 15.202 13.7265 15.202H1.81101C1.48273 15.202 1.21523 14.9345 1.21523 14.6063V6.26542ZM10.0959 7.54991C10.0505 7.55841 10.0073 7.57598 9.96895 7.60158C9.93055 7.62717 9.89773 7.66026 9.87244 7.69885L6.94957 12.0182L5.5906 10.6777C5.55766 10.6446 5.51849 10.6183 5.47534 10.6003C5.43219 10.5824 5.38592 10.5731 5.33919 10.5731C5.29245 10.5731 5.24618 10.5824 5.20303 10.6003C5.15989 10.6183 5.12071 10.6446 5.08777 10.6777L4.56647 11.1806C4.49852 11.2503 4.4605 11.3438 4.4605 11.4412C4.4605 11.5386 4.49852 11.6321 4.56647 11.7019L6.63321 13.7686C6.74939 13.8836 6.93408 13.973 7.09851 13.973C7.26294 13.973 7.43929 13.8681 7.54534 13.7126L11.064 8.51804C11.1183 8.43903 11.1391 8.34168 11.1216 8.24738C11.1042 8.15309 11.05 8.06957 10.971 8.01521L10.3753 7.60591C10.2929 7.55183 10.1927 7.53176 10.0959 7.54991ZM537.413 876.097V877.288H552.903V876.097H537.413ZM539.796 879.076V880.267H550.52V879.076H539.796ZM537.413 882.055V883.246H552.903V882.055H537.413ZM539.796 885.034V886.225H550.52V885.034H539.796ZM537.413 888.012V889.204H552.903V888.012H537.413Z" fill="black" fill-opacity="0.7"/>
</g>
<defs>
<clipPath id="clip0_41_131">
<rect width="15.4902" height="15.4902" fill="white" transform="translate(0.0236816 0.903442)"/>
</clipPath>
</defs>
</svg>
