<svg xmlns="http://www.w3.org/2000/svg" xmlns:xlink="http://www.w3.org/1999/xlink" xmlns:xodm="http://www.corel.com/coreldraw/odm/2003" xml:space="preserve" version="1.1" style="shape-rendering:geometricPrecision;text-rendering:geometricPrecision;image-rendering:optimizeQuality;" viewBox="0 0 8.4666 10.58325" x="0px" y="0px" fill-rule="evenodd" clip-rule="evenodd"><defs><style type="text/css">
   
    .fil0 {fill:black;fill-rule:nonzero}
   
  </style></defs><g><path class="fil0" d="M3.448 0.2963c0.4188,0 0.7982,0.17 1.0729,0.4446 0.2751,0.2746 0.4451,0.6543 0.4451,1.0734 0,0.4188 -0.17,0.7982 -0.4446,1.0729 -0.2752,0.2751 -0.6546,0.4451 -1.0734,0.4451 -0.4191,0 -0.7988,-0.17 -1.0734,-0.4446l-0.0069 -0.0075c-0.2706,-0.2742 -0.4377,-0.6507 -0.4377,-1.0659 0,-0.4191 0.17,-0.7988 0.4446,-1.0734 0.2746,-0.2746 0.6543,-0.4446 1.0734,-0.4446zm1.7516 5.3428l0.6033 0.5953 1.047 -1.0587 -2.1048 0c-0.0816,0 -0.1557,0.0333 -0.2091,0.0867 -0.0539,0.0539 -0.0872,0.128 -0.0872,0.2096l0 2.0217c0.0075,0.0162 0.0117,0.0343 0.0117,0.0533 0,0.019 -0.0042,0.0371 -0.0117,0.0533l0 0.0197c0,0.0813 0.0334,0.1554 0.0872,0.2092 0.0537,0.0537 0.1278,0.0871 0.2091,0.0871l2.148 0c0.0814,0 0.1556,-0.0334 0.2093,-0.087 0.0536,-0.0537 0.087,-0.1279 0.087,-0.2093l0 -1.7338 -1.2901 1.305c-0.049,0.0498 -0.1293,0.0505 -0.1791,0.0015l-1.0403 -1.0263c-0.0498,-0.049 -0.0505,-0.1293 -0.0015,-0.1791l0.3421 -0.3467c0.049,-0.0498 0.1293,-0.0505 0.1791,-0.0015zm1.8716 -0.6872l0.3982 -0.4026c0.0493,-0.0498 0.1298,-0.0503 0.1796,-0.001l0.3462 0.3421c0.0498,0.049 0.0505,0.1293 0.0015,0.1791l-0.5533 0.5597 0 1.9908c0,0.1509 -0.062,0.2885 -0.1616,0.3882 -0.1002,0.1001 -0.2378,0.1621 -0.3887,0.1621l-2.148 0c-0.1514,0 -0.2891,-0.0619 -0.3887,-0.1615 -0.0877,-0.0877 -0.1461,-0.2048 -0.1589,-0.3348l-3.0977 0c-0.1834,0 -0.3502,-0.075 -0.4708,-0.1956 -0.1207,-0.1207 -0.1956,-0.2875 -0.1956,-0.4709l0 -0.7421c0,-0.7024 0.2875,-1.3411 0.7503,-1.804 0.4634,-0.4633 1.1021,-0.7508 1.8045,-0.7508l0.9194 0c0.4591,0 0.8913,0.1229 1.2647,0.3372 0.3689,0.2117 0.681,0.5132 0.9055,0.8739l0.8153 0c0.0464,0 0.0929,0.0063 0.138,0.0181 0.0136,0.0035 0.027,0.0076 0.0401,0.0121zm-1.3557 1.552l-0.6035 -0.5954 -0.1642 0.1664 0.8601 0.8485 1.9193 -1.9416 -0.1662 -0.164 -1.6664 1.6851c-0.0493,0.0493 -0.1294,0.0499 -0.1791,0.001zm-1.5207 0.9161l0 -1.948c0,-0.1508 0.0619,-0.2883 0.1616,-0.3882l0.0008 -0.0008c0.0998,-0.0995 0.2372,-0.1613 0.3879,-0.1613l1.0274 0c-0.1926,-0.2659 -0.4404,-0.4897 -0.7262,-0.6537 -0.336,-0.1928 -0.7251,-0.3034 -1.1387,-0.3034l-0.9194 0c-0.6328,0 -1.2082,0.2588 -1.6251,0.6757 -0.4169,0.4169 -0.6757,0.9923 -0.6757,1.6251l0 0.7421c0,0.1133 0.0464,0.2165 0.1212,0.2913 0.0747,0.0747 0.1779,0.1212 0.2912,0.1212l3.095 0zm0.1471 -6.4996c-0.2285,-0.2287 -0.5447,-0.3701 -0.8939,-0.3701 -0.349,0 -0.6652,0.1416 -0.8938,0.3702 -0.2286,0.2286 -0.3702,0.5448 -0.3702,0.8938 0,0.3461 0.1389,0.6597 0.3639,0.8879l0.0063 0.0059c0.2286,0.2286 0.5448,0.3702 0.8938,0.3702 0.3492,0 0.6654,-0.1414 0.894,-0.37 0.2286,-0.2286 0.37,-0.5448 0.37,-0.894 0,-0.349 -0.1416,-0.6652 -0.3701,-0.8939z"/></g><text x="0" y="23.4666" fill="#000000" font-size="5px" font-weight="bold" font-family="'Helvetica Neue', Helvetica, Arial-Unicode, Arial, Sans-serif">Created by Danang Marhendra</text><text x="0" y="28.4666" fill="#000000" font-size="5px" font-weight="bold" font-family="'Helvetica Neue', Helvetica, Arial-Unicode, Arial, Sans-serif">from the Noun Project</text></svg>