<svg width="18" height="18" viewBox="0 0 18 18" fill="none" xmlns="http://www.w3.org/2000/svg">
<path fill-rule="evenodd" clip-rule="evenodd" d="M4.673 1.526L5.25 3H15.75C15.978 3.00003 16.2029 3.052 16.4078 3.15199C16.6126 3.25197 16.792 3.39733 16.9323 3.57703C17.0725 3.75672 17.17 3.96602 17.2172 4.18902C17.2645 4.41202 17.2603 4.64286 17.205 4.864L15.705 10.864C15.6238 11.1885 15.4366 11.4765 15.1729 11.6823C14.9093 11.8881 14.5845 12 14.25 12H6.25C5.94779 12 5.65263 11.9088 5.40317 11.7382C5.15371 11.5676 4.9616 11.3256 4.852 11.044L1.75 3.5C1.35218 3.5 0.970644 3.34196 0.68934 3.06066C0.408035 2.77936 0.25 2.39782 0.25 2C0.25 1.60218 0.408035 1.22064 0.68934 0.93934C0.970644 0.658035 1.35218 0.5 1.75 0.5H3.25C3.56486 0.500029 3.87173 0.599137 4.12713 0.783283C4.38253 0.967428 4.5735 1.22727 4.673 1.526ZM6.75 17.5C7.14782 17.5 7.52936 17.342 7.81066 17.0607C8.09196 16.7794 8.25 16.3978 8.25 16C8.25 15.6022 8.09196 15.2206 7.81066 14.9393C7.52936 14.658 7.14782 14.5 6.75 14.5C6.35218 14.5 5.97064 14.658 5.68934 14.9393C5.40804 15.2206 5.25 15.6022 5.25 16C5.25 16.3978 5.40804 16.7794 5.68934 17.0607C5.97064 17.342 6.35218 17.5 6.75 17.5ZM13.75 17.5C14.1478 17.5 14.5294 17.342 14.8107 17.0607C15.092 16.7794 15.25 16.3978 15.25 16C15.25 15.6022 15.092 15.2206 14.8107 14.9393C14.5294 14.658 14.1478 14.5 13.75 14.5C13.3522 14.5 12.9706 14.658 12.6893 14.9393C12.408 15.2206 12.25 15.6022 12.25 16C12.25 16.3978 12.408 16.7794 12.6893 17.0607C12.9706 17.342 13.3522 17.5 13.75 17.5Z" fill="#343538"/>
</svg>
