<svg width="15" height="20" viewBox="0 0 15 20" fill="none" xmlns="http://www.w3.org/2000/svg">
<path fill-rule="evenodd" clip-rule="evenodd" d="M14.5469 7.5C14.5469 11.147 10.6159 16.629 8.64487 19.147C8.51564 19.3154 8.3494 19.4519 8.159 19.5457C7.96861 19.6396 7.75916 19.6885 7.54688 19.6885C7.33459 19.6885 7.12514 19.6396 6.93475 19.5457C6.74435 19.4519 6.57811 19.3154 6.44888 19.147C4.47888 16.63 0.546875 11.147 0.546875 7.5C0.546875 5.64348 1.28437 3.86301 2.59713 2.55025C3.90988 1.2375 5.69036 0.5 7.54688 0.5C9.40339 0.5 11.1839 1.2375 12.4966 2.55025C13.8094 3.86301 14.5469 5.64348 14.5469 7.5ZM10.5449 7.605C10.5351 8.00147 10.4468 8.39207 10.2852 8.7542C10.1235 9.11633 9.89159 9.44281 9.60292 9.71476C9.31426 9.9867 8.97454 10.1987 8.60341 10.3385C8.23229 10.4783 7.83712 10.5432 7.44078 10.5293C7.04443 10.5154 6.65477 10.4231 6.29434 10.2577C5.93391 10.0922 5.60985 9.85696 5.34092 9.56549C5.07199 9.27401 4.86351 8.93211 4.72756 8.55955C4.59161 8.187 4.53088 7.79118 4.54887 7.395C4.58474 6.60556 4.93064 5.86216 5.51144 5.32628C6.09224 4.79039 6.86102 4.50532 7.65079 4.53298C8.44056 4.56064 9.18752 4.8988 9.7294 5.474C10.2713 6.0492 10.5643 6.81499 10.5449 7.605Z" fill="#343538"/>
</svg>
